<svg width="96" height="124" viewBox="0 0 96 124" fill="none" xmlns="http://www.w3.org/2000/svg">
<g id="Group 2 1" clip-path="url(#clip0_1722_4946)">
<path id="Vector" d="M0.5 123.963C0.5 97.3221 21.7202 75.7578 47.936 75.7578C74.1517 75.7578 95.3719 97.3654 95.3719 123.963" fill="#00A49F"/>
<path id="Vector_2" d="M70.394 81.4851C63.7333 77.8405 56.0907 75.7578 47.9356 75.7578C42.4704 75.7578 37.2188 76.7123 32.3086 78.4479C38.2861 83.0037 45.6726 85.6938 53.6996 85.6938C59.7198 85.6938 65.3986 84.1752 70.394 81.4851Z" fill="black"/>
<path id="Vector_3" d="M47.9367 83.5245C68.1454 83.5245 84.5278 66.8766 84.5278 46.3403C84.5278 25.8041 68.1454 9.15625 47.9367 9.15625C27.7281 9.15625 11.3457 25.8041 11.3457 46.3403C11.3457 66.8766 27.7281 83.5245 47.9367 83.5245Z" fill="#C9F5EC"/>
<path id="Vector_4" d="M11.6919 51.446H84.1775C84.4071 49.7626 84.5257 48.0432 84.5257 46.2957C84.5257 44.5492 84.4072 42.8308 84.1781 41.1484H11.6915C11.4622 42.8308 11.3438 44.5492 11.3438 46.2957C11.3438 48.0432 11.4624 49.7626 11.6919 51.446Z" fill="#002F34"/>
<path id="Vector_5" d="M82.4766 24.8183C77.481 10.3699 63.9463 0 47.9777 0C32.0519 0 18.4744 10.3699 13.4788 24.8183H11.3867V33.6696H11.5575H84.3553H84.5261V24.8183H82.4766Z" fill="#002F34"/>
<path id="Vector_6" d="M58.8237 35.1016C52.7181 35.1016 47.7227 40.1346 47.7227 46.3826C47.7227 52.5871 52.6755 57.6637 58.8237 57.6637C64.9295 57.6637 69.9249 52.6306 69.9249 46.3826C69.9249 40.1346 64.9295 35.1016 58.8237 35.1016ZM58.8237 49.7669C56.9879 49.7669 55.4507 48.2483 55.4507 46.3392C55.4507 44.4735 56.9451 42.9116 58.8237 42.9116C60.7025 42.9116 62.1969 44.4302 62.1969 46.3392C62.1969 48.2483 60.6597 49.7669 58.8237 49.7669Z" fill="#002F34"/>
<path id="Vector_7" d="M58.8242 49.7694C56.9883 49.7694 55.4512 48.2508 55.4512 46.3417C55.4512 44.476 56.9456 42.9141 58.8242 42.9141C60.7029 42.9141 62.1973 44.4327 62.1973 46.3417C62.1973 48.2508 60.6601 49.7694 58.8242 49.7694Z" fill="#CBF7EE"/>
<path id="Vector_8" d="M34.3158 37.875C29.7046 37.875 25.9473 41.6931 25.9473 46.3791C25.9473 51.0651 29.7046 54.8833 34.3158 54.8833C38.9271 54.8833 42.6843 51.0651 42.6843 46.3791C42.6843 41.6498 38.9697 37.875 34.3158 37.875ZM34.3158 48.939C32.9069 48.939 31.7967 47.7675 31.7967 46.3791C31.7967 44.9906 32.9495 43.8191 34.3158 43.8191C35.6822 43.8191 36.835 44.9906 36.835 46.3791C36.835 47.7675 35.7248 48.939 34.3158 48.939Z" fill="#002F34"/>
<path id="Vector_9" d="M34.316 48.9402C32.907 48.9402 31.7969 47.7687 31.7969 46.3803C31.7969 44.9918 32.9497 43.8203 34.316 43.8203C35.6823 43.8203 36.8351 44.9918 36.8351 46.3803C36.8351 47.7687 35.7249 48.9402 34.316 48.9402Z" fill="#CBF7EE"/>
</g>
<defs>
<clipPath id="clip0_1722_4946">
<rect width="95" height="124" fill="white" transform="translate(0.5)"/>
</clipPath>
</defs>
</svg>
