<svg width="44" height="58" viewBox="0 0 44 58" fill="none" xmlns="http://www.w3.org/2000/svg">
<g id="Group 2 1" clip-path="url(#clip0_1722_2959)">
<path id="Vector" d="M0 57.9849C0 45.524 9.8283 35.4375 21.9703 35.4375C34.1124 35.4375 43.9407 45.5443 43.9407 57.9849" fill="#00A49F"/>
<path id="Vector_2" d="M32.372 38.1164C29.287 36.4117 25.7473 35.4375 21.9702 35.4375C19.4389 35.4375 17.0066 35.884 14.7324 36.6958C17.501 38.8267 20.9221 40.085 24.6399 40.085C27.4282 40.085 30.0583 39.3747 32.372 38.1164Z" fill="black"/>
<path id="Vector_3" d="M21.9709 39.0664C31.3307 39.0664 38.9183 31.2795 38.9183 21.6738C38.9183 12.0682 31.3307 4.28125 21.9709 4.28125C12.6111 4.28125 5.02344 12.0682 5.02344 21.6738C5.02344 31.2795 12.6111 39.0664 21.9709 39.0664Z" fill="#C9F5EC"/>
<path id="Vector_4" d="M5.18274 24.0666H38.755C38.8613 23.2792 38.9163 22.475 38.9163 21.6576C38.9163 20.8407 38.8614 20.0369 38.7553 19.25H5.18254C5.07636 20.0369 5.02148 20.8407 5.02148 21.6576C5.02148 22.475 5.07643 23.2792 5.18274 24.0666Z" fill="#002F34"/>
<path id="Vector_5" d="M37.9688 11.6086C35.6551 4.85043 29.3864 0 21.9904 0C14.6142 0 8.32567 4.85043 6.01195 11.6086H5.04297V15.7487H5.12207H38.8389H38.9181V11.6086H37.9688Z" fill="#002F34"/>
<path id="Vector_6" d="M27.0126 16.4219C24.1848 16.4219 21.8711 18.7761 21.8711 21.6985C21.8711 24.6006 24.165 26.9751 27.0126 26.9751C29.8406 26.9751 32.1543 24.6209 32.1543 21.6985C32.1543 18.7761 29.8406 16.4219 27.0126 16.4219ZM27.0126 23.2815C26.1624 23.2815 25.4504 22.5711 25.4504 21.6782C25.4504 20.8055 26.1425 20.0749 27.0126 20.0749C27.8828 20.0749 28.5749 20.7853 28.5749 21.6782C28.5749 22.5711 27.863 23.2815 27.0126 23.2815Z" fill="#002F34"/>
<path id="Vector_7" d="M27.0134 23.2768C26.1631 23.2768 25.4512 22.5665 25.4512 21.6736C25.4512 20.8009 26.1433 20.0703 27.0134 20.0703C27.8836 20.0703 28.5757 20.7806 28.5757 21.6736C28.5757 22.5665 27.8637 23.2768 27.0134 23.2768Z" fill="#CBF7EE"/>
<path id="Vector_8" d="M15.6611 17.7188C13.5254 17.7188 11.7852 19.5046 11.7852 21.6965C11.7852 23.8883 13.5254 25.6743 15.6611 25.6743C17.7969 25.6743 19.537 23.8883 19.537 21.6965C19.537 19.4844 17.8166 17.7188 15.6611 17.7188ZM15.6611 22.8939C15.0086 22.8939 14.4944 22.3459 14.4944 21.6965C14.4944 21.047 15.0283 20.4991 15.6611 20.4991C16.2939 20.4991 16.8279 21.047 16.8279 21.6965C16.8279 22.3459 16.3137 22.8939 15.6611 22.8939Z" fill="#002F34"/>
<path id="Vector_9" d="M15.6628 22.8948C15.0103 22.8948 14.4961 22.3468 14.4961 21.6974C14.4961 21.048 15.03 20.5 15.6628 20.5C16.2957 20.5 16.8296 21.048 16.8296 21.6974C16.8296 22.3468 16.3154 22.8948 15.6628 22.8948Z" fill="#CBF7EE"/>
</g>
<defs>
<clipPath id="clip0_1722_2959">
<rect width="44" height="58" fill="white"/>
</clipPath>
</defs>
</svg>
