<svg width="176" height="32" fill="none" xmlns="http://www.w3.org/2000/svg"><path fill-rule="evenodd" clip-rule="evenodd" d="M43.657 21.655c0 2.348-.006 4.553-.006 6.901-5.997.94-6.988-6.9.006-6.9zm96.532 0c0 2.348-.006 4.553-.006 6.901-5.998.94-6.988-6.9.006-6.9zm8.856 6.055c-.007-3.657-.007-7.309 0-10.966.012-7.88-11.996-8.347-18.098-5.493-6.751 3.157-1.913 9.051 2.784 6.973 3.251-1.44 3.406-5.285-.069-6.907 5.574-.55 6.595 2.678 6.545 5.636-.024 1.265 0 2.426-.018 3.3-15.296-2.573-17.625 10.074-8.208 11.63 4.209.5 6.645-.692 8.202-2.007v1.848h12.151l-3.289-2.288V27.71zm3.899-14.842l3.282 2.287.005 14.276-3.287 2.287h15.413l-3.288-2.287V13.418l2.292-.468c-1.801 3.003.897 5.62 3.923 5.587 5.6-.066 6.627-8.094.823-8.837-2.971-.324-5.268 1.287-7.032 2.316V9.892l-12.131 2.975zm-96.526 0l3.282 2.287.006 14.276-3.288 2.287h15.414l-3.288-2.287V13.418l2.291-.468c-1.8 3.003.897 5.62 3.924 5.587 5.599-.066 6.626-8.094.822-8.837-2.97-.324-5.269 1.287-7.037 2.316V9.892l-12.126 2.975zM12.119 30.322V16.915c9.454 0 10.314 13.225 0 13.407zm0-27.017c7.823 0 7.586 12.356 0 12.356V3.305zm-8.83.88v25.24L0 31.73h17.357c15.7-.617 14.492-15.684 2.005-15.48 10.114-.27 10.395-14.48-4.172-14.342L.006 1.903l3.282 2.282zM108.476 0v10.916c1.413-.54 6.308-2.354 10.799-.275 3.761 1.743 5.461 5.174 5.636 8.716.287 5.845-2.828 12.274-10.345 12.614-2.198.1-4.39-.483-6.09-2.007v1.76H96.351l3.288-2.288-.006-24.151-3.282-2.288L108.477 0zm0 28.496c8.992 1.958 9.864-17.025 0-16.162v16.162zM88.067 0c2.411 0 4.367 1.727 4.367 3.855S90.478 7.71 88.068 7.71c-2.41 0-4.366-1.727-4.366-3.855C83.696 1.727 85.652 0 88.068 0zm4.423 27.715v1.721l3.288 2.288H80.364l3.288-2.288-.006-14.32-3.282-2.287 12.132-2.997-.006 17.883zm-39.977-.005c-.006-3.657-.006-7.309 0-10.966.013-7.88-11.995-8.347-18.098-5.493-6.751 3.157-1.912 9.051 2.784 6.973 3.25-1.44 3.407-5.285-.069-6.907 5.574-.55 6.596 2.678 6.546 5.636-.025 1.265 0 2.426-.019 3.3-15.295-2.573-17.625 10.074-8.208 11.63 4.21.5 6.645-.692 8.202-2.007v1.848h12.15l-3.288-2.288V27.71z" fill="#fff"/></svg>