<svg width="72" height="42" fill="none" xmlns="http://www.w3.org/2000/svg"><g id="OLX_Logo_Charcoal_RGB 1" clip-path="url(#clip0_1728_86)"><path id="Logo" d="M47.272 41.502h-9.78V.5h9.78v41.002zm-13.305-20.5c0 3.342-.996 6.608-2.862 9.387a16.965 16.965 0 01-7.622 6.223 17.066 17.066 0 01-9.813.961 17.012 17.012 0 01-8.696-4.624A16.87 16.87 0 01.326 24.3a16.815 16.815 0 01.967-9.763 16.915 16.915 0 016.255-7.583 17.06 17.06 0 0115.935-1.561 16.99 16.99 0 015.51 3.663 16.889 16.889 0 013.682 5.481 16.82 16.82 0 011.292 6.466zm-11.837 0a5.103 5.103 0 00-.868-2.845 5.143 5.143 0 00-2.31-1.886 5.173 5.173 0 00-5.61 1.11 5.096 5.096 0 00-1.115 5.581 5.126 5.126 0 001.897 2.298 5.165 5.165 0 006.499-.637 5.118 5.118 0 001.507-3.621zm49.876-10.268h-6.502l-3.81 3.79-3.81-3.79h-6.502v6.57l3.758 3.738-3.758 3.74v6.48h6.586l3.722-3.703 3.722 3.703h6.594v-6.475l-3.759-3.74 3.76-3.743v-6.57z" fill="#fff"/></g><defs><clipPath id="clip0_1728_86"><path fill="#fff" transform="translate(0 .5)" d="M0 0h72v41H0z"/></clipPath></defs></svg>