<svg width="44" height="58" fill="none" xmlns="http://www.w3.org/2000/svg"><g id="Group 2 1" clip-path="url(#clip0_1722_2959)"><path id="Vector" d="M0 57.985c0-12.461 9.828-22.547 21.97-22.547s21.97 10.106 21.97 22.547" fill="#00A49F"/><path id="Vector_2" d="M32.372 38.116a21.427 21.427 0 00-10.402-2.678c-2.531 0-4.963.446-7.238 1.258 2.769 2.13 6.19 3.389 9.908 3.389 2.788 0 5.418-.71 7.732-1.969z" fill="#000"/><path id="Vector_3" d="M21.97 39.066c9.36 0 16.948-7.787 16.948-17.392 0-9.606-7.587-17.393-16.947-17.393S5.023 12.068 5.023 21.674c0 9.605 7.588 17.392 16.948 17.392z" fill="#C9F5EC"/><path id="Vector_4" d="M5.183 24.067h33.572a18 18 0 000-4.817H5.183a17.999 17.999 0 000 4.817z" fill="#002F34"/><path id="Vector_5" d="M37.969 11.609C35.655 4.85 29.386 0 21.99 0 14.614 0 8.326 4.85 6.012 11.609h-.969v4.14h33.876v-4.14h-.95z" fill="#002F34"/><path id="Vector_6" d="M27.013 16.422c-2.828 0-5.142 2.354-5.142 5.276 0 2.903 2.294 5.277 5.142 5.277 2.828 0 5.141-2.354 5.141-5.277 0-2.922-2.313-5.276-5.141-5.276zm0 6.86c-.85 0-1.563-.71-1.563-1.604 0-.873.692-1.603 1.563-1.603.87 0 1.562.71 1.562 1.603s-.712 1.604-1.562 1.604z" fill="#002F34"/><path id="Vector_7" d="M27.013 23.277c-.85 0-1.562-.71-1.562-1.603 0-.873.692-1.604 1.562-1.604.87 0 1.563.71 1.563 1.604 0 .893-.712 1.603-1.563 1.603z" fill="#CBF7EE"/><path id="Vector_8" d="M15.661 17.719c-2.136 0-3.876 1.786-3.876 3.977 0 2.192 1.74 3.978 3.876 3.978s3.876-1.786 3.876-3.977c0-2.213-1.72-3.978-3.876-3.978zm0 5.175c-.652 0-1.167-.548-1.167-1.197 0-.65.534-1.198 1.167-1.198s1.167.548 1.167 1.198c0 .649-.514 1.197-1.167 1.197z" fill="#002F34"/><path id="Vector_9" d="M15.663 22.895c-.653 0-1.167-.548-1.167-1.198 0-.649.534-1.197 1.167-1.197s1.167.548 1.167 1.197c0 .65-.515 1.198-1.167 1.198z" fill="#CBF7EE"/></g><defs><clipPath id="clip0_1722_2959"><path fill="#fff" d="M0 0h44v58H0z"/></clipPath></defs></svg>