<svg width="96" height="124" fill="none" xmlns="http://www.w3.org/2000/svg"><g id="Group 2 1" clip-path="url(#clip0_1722_4946)"><path id="Vector" d="M.5 123.963c0-26.64 21.22-48.205 47.436-48.205s47.436 21.607 47.436 48.205" fill="#00A49F"/><path id="Vector_2" d="M70.394 81.485a46.62 46.62 0 00-22.458-5.727c-5.466 0-10.717.954-15.627 2.69 5.977 4.556 13.364 7.246 21.39 7.246 6.02 0 11.7-1.519 16.695-4.209z" fill="#000"/><path id="Vector_3" d="M47.937 83.525c20.208 0 36.59-16.648 36.59-37.185 0-20.536-16.382-37.184-36.59-37.184-20.209 0-36.591 16.648-36.591 37.184 0 20.537 16.382 37.184 36.59 37.184z" fill="#C9F5EC"/><path id="Vector_4" d="M11.692 51.446h72.485a38.135 38.135 0 000-10.298H11.693a38 38 0 00-.348 5.148c0 1.747.118 3.467.348 5.15z" fill="#002F34"/><path id="Vector_5" d="M82.477 24.818C77.48 10.37 63.947 0 47.977 0 32.053 0 18.475 10.37 13.48 24.818h-2.092v8.852h73.138v-8.852h-2.05z" fill="#002F34"/><path id="Vector_6" d="M58.824 35.102c-6.106 0-11.101 5.033-11.101 11.28 0 6.205 4.953 11.282 11.1 11.282 6.107 0 11.102-5.033 11.102-11.281S64.93 35.102 58.824 35.102zm0 14.665c-1.836 0-3.373-1.519-3.373-3.428 0-1.865 1.494-3.427 3.373-3.427 1.879 0 3.373 1.518 3.373 3.427 0 1.91-1.537 3.428-3.373 3.428z" fill="#002F34"/><path id="Vector_7" d="M58.824 49.77c-1.836 0-3.373-1.52-3.373-3.428 0-1.866 1.495-3.428 3.373-3.428 1.879 0 3.373 1.519 3.373 3.428s-1.537 3.427-3.373 3.427z" fill="#CBF7EE"/><path id="Vector_8" d="M34.316 37.875c-4.611 0-8.369 3.818-8.369 8.504s3.758 8.504 8.369 8.504 8.368-3.818 8.368-8.504c0-4.73-3.714-8.504-8.368-8.504zm0 11.064c-1.41 0-2.52-1.172-2.52-2.56 0-1.388 1.154-2.56 2.52-2.56s2.519 1.172 2.519 2.56c0 1.389-1.11 2.56-2.52 2.56z" fill="#002F34"/><path id="Vector_9" d="M34.316 48.94c-1.409 0-2.52-1.171-2.52-2.56 0-1.388 1.154-2.56 2.52-2.56s2.52 1.172 2.52 2.56c0 1.389-1.111 2.56-2.52 2.56z" fill="#CBF7EE"/></g><defs><clipPath id="clip0_1722_4946"><path fill="#fff" transform="translate(.5)" d="M0 0h95v124H0z"/></clipPath></defs></svg>