<svg width="176" height="32" viewBox="0 0 176 32" fill="none" xmlns="http://www.w3.org/2000/svg">
<path fill-rule="evenodd" clip-rule="evenodd" d="M43.6572 21.6553C43.6572 24.0034 43.651 26.2084 43.651 28.5565C37.6536 29.4968 36.6633 21.6553 43.6572 21.6553ZM140.189 21.6553C140.189 24.0034 140.183 26.2084 140.183 28.5565C134.185 29.4968 133.195 21.6553 140.189 21.6553ZM149.045 27.7097C149.038 24.0528 149.038 20.4015 149.045 16.7445C149.057 8.86445 137.049 8.39704 130.947 11.251C124.196 14.4075 129.034 20.3025 133.731 18.2238C136.982 16.7831 137.137 12.9393 133.662 11.317C139.236 10.7671 140.257 13.9951 140.207 16.9535C140.183 18.2184 140.207 19.3787 140.189 20.253C124.893 17.6795 122.564 30.3271 131.981 31.8834C136.19 32.3839 138.626 31.1905 140.183 29.8763V31.724H147.929H149.045H152.334L149.045 29.4364V29.4089V27.7097ZM152.944 12.8677L156.226 15.1554L156.231 29.431L152.944 31.7185H165.069H168.357L165.069 29.431V29.4199V27.7097V26.2415V13.4176L167.361 12.9502C165.56 15.9528 168.258 18.5702 171.284 18.5373C176.884 18.4712 177.911 10.4427 172.107 9.7003C169.136 9.37587 166.839 10.9871 165.075 12.0155V9.89277L152.944 12.8677ZM56.418 12.8677L59.7002 15.1554L59.7064 29.431L56.418 31.7185H68.5436H71.8319L68.5436 29.431V29.4199V28.0561V27.7097V26.2415V13.4176L70.8355 12.9502C69.0357 15.9528 71.7323 18.5702 74.759 18.5373C80.3579 18.4712 81.3854 10.4427 75.5811 9.7003C72.6104 9.37587 70.3124 10.9871 68.5436 12.0155V9.89277L56.418 12.8677ZM12.1194 30.3217V16.9151C21.5732 16.9151 22.4326 30.1402 12.1194 30.3217ZM12.1194 3.30493C19.9415 3.30493 19.705 15.6613 12.1194 15.6613V3.30493ZM3.2883 4.18477V29.4254L0 31.7295H8.71897H15.2396H17.3571C33.0574 31.1135 31.8492 16.0462 19.3624 16.2497C29.4764 15.9803 29.7567 1.77069 15.1896 1.90817L0.00623392 1.90267L3.2883 4.18477ZM108.477 0V10.9156C109.89 10.3767 114.785 8.56201 119.276 10.6406C123.037 12.3838 124.737 15.8153 124.912 19.3566C125.199 25.2021 122.084 31.6305 114.567 31.9715C112.369 32.0704 110.177 31.4876 108.477 29.9643V31.724H96.3509L99.6392 29.4364L99.6331 5.28459L96.3509 2.99698L108.477 0ZM108.477 28.4961C117.469 30.4537 118.341 11.471 108.477 12.3344V28.4961ZM88.0679 0C90.4782 0 92.4336 1.7267 92.4336 3.85482C92.4336 5.98296 90.4782 7.70967 88.0679 7.70967C85.6578 7.70967 83.7022 5.98296 83.7022 3.85482C83.696 1.7267 85.6516 0 88.0679 0ZM92.4896 27.7152V28.4411V29.4364L95.778 31.724H92.4896H80.3641L83.6524 29.4364L83.6462 15.1168L80.3641 12.8294L92.496 9.83226L92.4896 27.7152ZM52.5132 27.7097C52.507 24.0528 52.507 20.4015 52.5132 16.7445C52.5257 8.86445 40.5183 8.39704 34.415 11.251C27.664 14.4075 32.5031 20.3025 37.1989 18.2238C40.4498 16.7831 40.6055 12.9393 37.1304 11.317C42.7044 10.7671 43.7257 13.9951 43.6758 16.9535C43.651 18.2184 43.6758 19.3787 43.6572 20.253C28.3616 17.6795 26.0323 30.3271 35.4489 31.8834C39.6589 32.3839 42.094 31.1905 43.651 29.8763V31.724H51.3983H52.5132H55.8015L52.5132 29.4364V29.4089V27.7097Z" fill="white"/>
</svg>
