<svg width="72" height="42" viewBox="0 0 72 42" fill="none" xmlns="http://www.w3.org/2000/svg">
<g id="OLX_Logo_Charcoal_RGB 1" clip-path="url(#clip0_1728_86)">
<path id="Logo" d="M47.2719 41.5025H37.4929V0.5H47.2719V41.5025ZM33.9674 21.0019C33.9674 24.3436 32.9713 27.6103 31.1051 30.3888C29.2389 33.1674 26.5864 35.333 23.4831 36.6118C20.3797 37.8906 16.9649 38.2252 13.6703 37.5733C10.3758 36.9213 7.34963 35.3121 4.97441 32.9492C2.5992 30.5862 0.981664 27.5757 0.326344 24.2981C-0.328975 21.0206 0.00735904 17.6234 1.29281 14.5361C2.57827 11.4487 4.75511 8.80992 7.54806 6.95336C10.341 5.0968 13.6246 4.10587 16.9837 4.10587C19.214 4.10587 21.4225 4.5429 23.4831 5.392C25.5436 6.24111 27.4159 7.48566 28.993 9.0546C30.5701 10.6235 31.8211 12.4861 32.6746 14.5361C33.5281 16.586 33.9674 18.7831 33.9674 21.0019ZM22.1297 21.0019C22.1297 19.9891 21.8278 18.999 21.2622 18.1568C20.6965 17.3147 19.8925 16.6584 18.9519 16.2708C18.0113 15.8833 16.9763 15.782 15.9778 15.9796C14.9793 16.1773 14.0621 16.6652 13.3423 17.3814C12.6225 18.0977 12.1323 19.0103 11.9339 20.0037C11.7354 20.9971 11.8375 22.0267 12.2273 22.9624C12.6171 23.8981 13.277 24.6977 14.1237 25.2602C14.9703 25.8228 15.9656 26.1229 16.9837 26.1226C17.6596 26.1226 18.3289 25.9902 18.9533 25.7328C19.5777 25.4755 20.1451 25.0982 20.6229 24.6227C21.1008 24.1472 21.4798 23.5827 21.7384 22.9614C21.9969 22.3401 22.1299 21.6743 22.1297 21.0019ZM72.0064 10.7339H65.504L61.694 14.5242L57.884 10.7339H51.3816V17.3038L55.1395 21.0423L51.3816 24.7821V31.2623H57.9678L61.6902 27.5592L65.4125 31.2623H72.0064V24.7872L68.2472 21.0474L72.0064 17.3038V10.7339Z" fill="white"/>
</g>
<defs>
<clipPath id="clip0_1728_86">
<rect width="72" height="41" fill="white" transform="translate(0 0.5)"/>
</clipPath>
</defs>
</svg>
